<svg width="71" height="62" viewBox="0 0 71 62" fill="none" xmlns="http://www.w3.org/2000/svg">
<path d="M0 5C0 2.23858 2.23858 0 5 0H66C68.7614 0 71 2.23858 71 5V57C71 59.7614 68.7614 62 66 62H5C2.23858 62 0 59.7614 0 57V5Z" fill="#B76E79"/>
<path d="M33.3814 36.4307L33.3728 36.4107C33.2004 36.3699 33.0289 36.3252 32.8585 36.2764L32.8457 36.2721C31.2161 35.8037 29.7111 34.9785 28.4399 33.8564C27.0419 32.6232 25.9668 31.0666 25.3084 29.3225C24.6499 27.5784 24.4281 25.6998 24.6623 23.8503C24.8965 22.0008 25.5796 20.2367 26.652 18.7118C27.7244 17.1869 29.1535 15.9474 30.8148 15.1016C32.4761 14.2557 34.3191 13.8291 36.1831 13.8589C38.0471 13.8887 39.8755 14.374 41.5089 15.2726C43.1423 16.1712 44.5311 17.4556 45.5542 19.0141C46.5773 20.5725 47.2036 22.3575 47.3785 24.2136C47.4342 24.8036 46.9499 25.285 46.3571 25.285C45.7657 25.285 45.2928 24.8036 45.2242 24.215C45.0354 22.5911 44.4212 21.0459 43.4437 19.7355C42.4662 18.4251 41.16 17.396 39.6573 16.7522C38.1546 16.1085 36.5085 15.8728 34.8855 16.0692C33.2626 16.2655 31.7202 16.8868 30.4143 17.8703C29.1084 18.8539 28.0854 20.1647 27.4485 21.6704C26.8117 23.1761 26.5836 24.8232 26.7874 26.4452C26.9912 28.0673 27.6196 29.6068 28.6091 30.9081C29.5987 32.2095 30.9142 33.2265 32.4228 33.8564L32.4799 33.8807C32.7657 33.9978 33.059 34.1012 33.3599 34.1907C33.6128 33.5797 34.0698 33.0753 34.6529 32.7636C35.236 32.4518 35.9092 32.352 36.5578 32.4811C37.2063 32.6102 37.7899 32.9602 38.2092 33.4715C38.6285 33.9828 38.8575 34.6237 38.8571 35.285C38.8577 35.9416 38.6322 36.5784 38.2184 37.0883C37.8046 37.5981 37.2278 37.9499 36.5851 38.0843C35.9424 38.2188 35.273 38.1278 34.6895 37.8266C34.106 37.5255 33.644 37.0325 33.3814 36.4307ZM31.9728 38.2478C29.435 37.4586 27.1848 35.9416 25.5014 33.885C24.4581 34.0072 23.496 34.5083 22.7979 35.2931C22.0997 36.0779 21.7141 37.0917 21.7142 38.1421V39.1636C21.7142 44.475 27.7285 48.1421 35.9999 48.1421C44.2714 48.1421 50.2857 44.2736 50.2857 39.1636V38.1421C50.2857 37.0055 49.8341 35.9154 49.0304 35.1117C48.2267 34.3079 47.1366 33.8564 45.9999 33.8564H40.7928C41.1298 34.985 41.0575 36.1964 40.5887 37.2769C40.1199 38.3575 39.2847 39.2378 38.2303 39.7628C37.1759 40.2878 35.9701 40.4237 34.8253 40.1465C33.6805 39.8694 32.6703 39.197 31.9728 38.2478ZM43.1428 25.285C43.1428 23.125 42.1857 21.1893 40.6699 19.8793C39.9094 19.2232 39.0191 18.7349 38.0571 18.4463C37.0951 18.1576 36.0831 18.0751 35.087 18.2041C34.0909 18.333 33.1333 18.6706 32.2765 19.1948C31.4198 19.719 30.6832 20.4179 30.1149 21.2461C29.5466 22.0742 29.1593 23.0128 28.9783 24.0008C28.7974 24.9887 28.8268 26.0037 29.0646 26.9795C29.3025 27.9553 29.7435 28.87 30.3589 29.6638C30.9742 30.4576 31.75 31.1127 32.6357 31.5864C33.5561 30.7491 34.7556 30.2851 35.9999 30.285C37.2447 30.2847 38.4449 30.7488 39.3657 31.5864C40.507 30.9767 41.4612 30.0684 42.1265 28.9585C42.7918 27.8487 43.143 26.579 43.1428 25.285Z" fill="#EDE7DD"/>
</svg>
