<svg width="71" height="62" viewBox="0 0 71 62" fill="none" xmlns="http://www.w3.org/2000/svg">
<path d="M0 5C0 2.23858 2.23858 0 5 0H66C68.7614 0 71 2.23858 71 5V57C71 59.7614 68.7614 62 66 62H5C2.23858 62 0 59.7614 0 57V5Z" fill="#B76E79"/>
<path d="M37.6666 14.334V47.6673H22.6666V14.334H37.6666ZM49.3333 44.334V47.6673H41V44.334H49.3333ZM46 39.334V42.6673H41V39.334H46ZM46 34.334V37.6673H41V34.334H46ZM52.6666 29.334V32.6673H41V29.334H52.6666ZM34.3333 17.6673H26V31.0006H34.3333V17.6673ZM46 24.334V27.6673H41V24.334H46ZM46 19.334V22.6673H41V19.334H46ZM49.3333 14.334V17.6673H41V14.334H49.3333Z" fill="#EDE7DD"/>
</svg>
