<svg width="71" height="62" viewBox="0 0 71 62" fill="none" xmlns="http://www.w3.org/2000/svg">
<path d="M0 5C0 2.23858 2.23858 0 5 0H66C68.7614 0 71 2.23858 71 5V57C71 59.7614 68.7614 62 66 62H5C2.23858 62 0 59.7614 0 57V5Z" fill="#B76E79"/>
<path fill-rule="evenodd" clip-rule="evenodd" d="M42.25 20.1667C42.5815 20.1667 42.8994 20.035 43.1338 19.8006C43.3683 19.5661 43.5 19.2482 43.5 18.9167C43.5 18.5851 43.3683 18.2672 43.1338 18.0328C42.8994 17.7984 42.5815 17.6667 42.25 17.6667C41.9184 17.6667 41.6005 17.7984 41.3661 18.0328C41.1317 18.2672 41 18.5851 41 18.9167C41 19.2482 41.1317 19.5661 41.3661 19.8006C41.6005 20.035 41.9184 20.1667 42.25 20.1667ZM42.25 21.8333C42.633 21.8333 43.0123 21.7579 43.3661 21.6113C43.72 21.4647 44.0415 21.2499 44.3124 20.9791C44.5832 20.7082 44.798 20.3867 44.9446 20.0328C45.0912 19.679 45.1666 19.2997 45.1666 18.9167C45.1666 18.5336 45.0912 18.1544 44.9446 17.8005C44.798 17.4466 44.5832 17.1251 44.3124 16.8543C44.0415 16.5834 43.72 16.3686 43.3661 16.222C43.0123 16.0754 42.633 16 42.25 16C41.4764 16 40.7345 16.3073 40.1876 16.8543C39.6406 17.4013 39.3333 18.1431 39.3333 18.9167C39.3333 19.6902 39.6406 20.4321 40.1876 20.9791C40.7345 21.526 41.4764 21.8333 42.25 21.8333ZM31.8333 24.3333C31.3913 24.3333 30.9673 24.5089 30.6548 24.8215C30.3422 25.134 30.1666 25.558 30.1666 26C30.1666 26.442 30.3422 26.8659 30.6548 27.1785C30.9673 27.4911 31.3913 27.6667 31.8333 27.6667H37.6666V44.3333C37.6666 44.7754 37.8422 45.1993 38.1548 45.5118C38.4673 45.8244 38.8913 46 39.3333 46C39.7753 46 40.1992 45.8244 40.5118 45.5118C40.8244 45.1993 41 44.7754 41 44.3333V36.8333H43.5V44.3333C43.5 44.7754 43.6756 45.1993 43.9881 45.5118C44.3007 45.8244 44.7246 46 45.1666 46C45.6087 46 46.0326 45.8244 46.3451 45.5118C46.6577 45.1993 46.8333 44.7754 46.8333 44.3333V34.2642C48.0667 34.0519 49.1757 33.3849 49.9413 32.3949C50.707 31.4049 51.0737 30.1639 50.9691 28.9167C50.8644 27.6696 50.296 26.507 49.3761 25.6585C48.4561 24.8099 47.2515 24.3371 46 24.3333H31.8333ZM48.5 29.3333C48.5 28.8913 48.3244 28.4674 48.0118 28.1548C47.6992 27.8423 47.2753 27.6667 46.8333 27.6667V31C47.2753 31 47.6992 30.8244 48.0118 30.5118C48.3244 30.1993 48.5 29.7754 48.5 29.3333Z" fill="#EDE7DD"/>
<path fill-rule="evenodd" clip-rule="evenodd" d="M21 37.666C21 37.224 21.1756 36.8001 21.4882 36.4875C21.8007 36.1749 22.2246 35.9993 22.6667 35.9993H33.5C33.942 35.9993 34.3659 36.1749 34.6785 36.4875C34.9911 36.8001 35.1667 37.224 35.1667 37.666V44.3327C35.1667 44.7747 34.9911 45.1986 34.6785 45.5112C34.3659 45.8238 33.942 45.9993 33.5 45.9993H22.6667C22.2246 45.9993 21.8007 45.8238 21.4882 45.5112C21.1756 45.1986 21 44.7747 21 44.3327V37.666ZM24.3333 43.4993V38.4993H26V43.4993H24.3333ZM30.1667 38.4993V43.4993H31.8333V38.4993H30.1667ZM25.1667 34.3327C25.1667 33.8907 25.3423 33.4667 25.6548 33.1542C25.9674 32.8416 26.3913 32.666 26.8333 32.666H29.3333C29.7754 32.666 30.1993 32.8416 30.5118 33.1542C30.8244 33.4667 31 33.8907 31 34.3327V35.9993H29.3333V34.3327H26.8333V35.9993H25.1667V34.3327Z" fill="#EDE7DD"/>
</svg>
