<svg width="71" height="62" viewBox="0 0 71 62" fill="none" xmlns="http://www.w3.org/2000/svg">
<path d="M0 5C0 2.23858 2.23858 0 5 0H66C68.7614 0 71 2.23858 71 5V57C71 59.7614 68.7614 62 66 62H5C2.23858 62 0 59.7614 0 57V5Z" fill="#B76E79"/>
<path fill-rule="evenodd" clip-rule="evenodd" d="M36 16C36.2319 16 36.4593 16.0646 36.6567 16.1864C36.854 16.3083 37.0136 16.4826 37.1175 16.69L50.8675 44.19C50.9797 44.4137 51.0222 44.666 50.9894 44.9141C50.9566 45.1622 50.8501 45.3948 50.6837 45.5817C50.5172 45.7686 50.2985 45.9013 50.0558 45.9625C49.8131 46.0237 49.5577 46.0106 49.3225 45.925L36 41.08L22.675 45.925C22.4399 46.0099 22.1849 46.0224 21.9426 45.9609C21.7004 45.8993 21.4822 45.7666 21.3162 45.5799C21.1501 45.3931 21.0439 45.1609 21.0111 44.9131C20.9784 44.6654 21.0207 44.4135 21.1325 44.19L34.8825 16.69C34.9864 16.4826 35.146 16.3083 35.3433 16.1864C35.5407 16.0646 35.768 16 36 16Z" fill="#EDE7DD"/>
</svg>
