<svg width="80" height="80" viewBox="0 0 80 80" fill="none" xmlns="http://www.w3.org/2000/svg">
<path d="M56.6823 53.3424H63.349V13.3424H30.0156V20.0091H56.6823V53.3424ZM56.6823 60.0091V70.0058C56.6823 71.8491 55.1823 73.3391 53.3256 73.3391H13.3723C12.9326 73.3422 12.4966 73.2582 12.0895 73.0921C11.6824 72.926 11.3122 72.6809 11.0002 72.3711C10.6882 72.0613 10.4405 71.6927 10.2716 71.2868C10.1026 70.8809 10.0156 70.4455 10.0156 70.0058L10.0223 23.3458C10.0223 21.5024 11.5223 20.0091 13.379 20.0091H23.3456V10.0091C23.3456 9.12506 23.6968 8.27721 24.3219 7.65209C24.9471 7.02697 25.7949 6.67578 26.679 6.67578H66.679C67.563 6.67578 68.4109 7.02697 69.036 7.65209C69.6611 8.27721 70.0123 9.12506 70.0123 10.0091V56.6758C70.0123 57.5598 69.6611 58.4077 69.036 59.0328C68.4109 59.6579 67.563 60.0091 66.679 60.0091H56.6823ZM23.349 53.3424V60.0091H30.0156V63.3424H36.6823V60.0091H38.349C40.5591 60.0091 42.6787 59.1311 44.2415 57.5683C45.8043 56.0055 46.6823 53.8859 46.6823 51.6758C46.6823 49.4656 45.8043 47.346 44.2415 45.7832C42.6787 44.2204 40.5591 43.3424 38.349 43.3424H28.349C27.9069 43.3424 27.483 43.1669 27.1704 42.8543C26.8579 42.5417 26.6823 42.1178 26.6823 41.6758C26.6823 41.2338 26.8579 40.8098 27.1704 40.4973C27.483 40.1847 27.9069 40.0091 28.349 40.0091H43.349V33.3424H36.6823V30.0091H30.0156V33.3424H28.349C26.1388 33.3424 24.0192 34.2204 22.4564 35.7832C20.8936 37.346 20.0156 39.4656 20.0156 41.6758C20.0156 43.8859 20.8936 46.0055 22.4564 47.5683C24.0192 49.1311 26.1388 50.0091 28.349 50.0091H38.349C38.791 50.0091 39.2149 50.1847 39.5275 50.4973C39.84 50.8098 40.0156 51.2338 40.0156 51.6758C40.0156 52.1178 39.84 52.5417 39.5275 52.8543C39.2149 53.1669 38.791 53.3424 38.349 53.3424H23.349Z" fill="white"/>
</svg>
