<svg width="100" height="100" viewBox="0 0 100 100" fill="none" xmlns="http://www.w3.org/2000/svg">
<circle cx="50" cy="50" r="50" fill="#5C2020"/>
<path d="M65.7867 48.9859C65.6597 48.6585 65.4694 48.3595 65.2267 48.1059L51.8933 34.7725C51.6447 34.5239 51.3495 34.3267 51.0247 34.1921C50.6998 34.0575 50.3516 33.9883 50 33.9883C49.2899 33.9883 48.6088 34.2704 48.1067 34.7725C47.858 35.0212 47.6608 35.3163 47.5262 35.6412C47.3917 35.9661 47.3224 36.3142 47.3224 36.6659C47.3224 37.376 47.6045 38.057 48.1067 38.5592L56.9067 47.3325H36.6667C35.9594 47.3325 35.2811 47.6135 34.781 48.1136C34.281 48.6137 34 49.292 34 49.9992C34 50.7064 34.281 51.3847 34.781 51.8848C35.2811 52.3849 35.9594 52.6659 36.6667 52.6659H56.9067L48.1067 61.4392C47.8567 61.6871 47.6583 61.982 47.523 62.307C47.3876 62.6319 47.3179 62.9805 47.3179 63.3325C47.3179 63.6846 47.3876 64.0331 47.523 64.3581C47.6583 64.683 47.8567 64.978 48.1067 65.2259C48.3546 65.4758 48.6495 65.6742 48.9745 65.8096C49.2994 65.945 49.648 66.0147 50 66.0147C50.352 66.0147 50.7006 65.945 51.0255 65.8096C51.3505 65.6742 51.6454 65.4758 51.8933 65.2259L65.2267 51.8925C65.4694 51.6389 65.6597 51.3399 65.7867 51.0125C66.0534 50.3633 66.0534 49.6351 65.7867 48.9859Z" fill="white"/>
</svg>
