<svg width="80" height="80" viewBox="0 0 80 80" fill="none" xmlns="http://www.w3.org/2000/svg">
<path d="M3.26172 2.41797V9.35625C4.34984 47.7625 36.0653 45.9625 55.2734 61.3778C53.6166 62.2622 51.5558 62.8486 49.0039 63.16C56.0336 64.8141 62.2528 70.1344 65.2586 77.0806C68.972 67.3186 64.7761 59.1108 61.2109 51.3338C60.8542 53.8741 60.2223 55.9775 59.1944 57.6813C49.0381 45.6269 28.3189 46.4381 16.9483 19.2094C34.0552 36.2856 60.0506 16.6383 71.1327 46.3775C69.6114 47.1503 67.7634 47.3114 65.4342 46.8609C69.5405 51.7056 71.8741 57.7322 74.8144 65.5963C77.5358 55.6094 77.2866 48.6845 75.7566 40.2203C75.0113 42.1269 74.1838 43.637 73.1931 44.7516C64.8731 1.33766 30.5709 23.7355 11.8406 2.41797H3.26172Z" fill="white"/>
</svg>
