<svg width="90" height="80" viewBox="0 0 90 80" fill="none" xmlns="http://www.w3.org/2000/svg">
<path d="M73.4531 36.1406C73.4531 36.1406 74.6406 41.9531 74.9062 43.1719H69.6875C70.2031 41.7812 72.1875 36.375 72.1875 36.375C72.1562 36.4219 72.7031 34.9531 73.0156 34.0469L73.4531 36.1406ZM90 12.5V67.5C90 71.6406 86.6406 75 82.5 75H7.5C3.35938 75 0 71.6406 0 67.5V12.5C0 8.35938 3.35938 5 7.5 5H82.5C86.6406 5 90 8.35938 90 12.5ZM23.8281 51.75L33.7031 27.5H27.0625L20.9219 44.0625L20.25 40.7031L18.0625 29.5469C17.7031 28 16.5938 27.5625 15.2188 27.5H5.10938L5 27.9844C7.46875 28.6094 9.67187 29.5156 11.5938 30.6562L17.1875 51.75H23.8281ZM38.5781 51.7812L42.5156 27.5H36.2344L32.3125 51.7812H38.5781ZM60.4375 43.8438C60.4688 41.0781 58.7812 38.9688 55.1719 37.2344C52.9688 36.125 51.625 35.375 51.625 34.2344C51.6562 33.2031 52.7656 32.1406 55.2344 32.1406C57.2812 32.0938 58.7812 32.5781 59.9062 33.0625L60.4688 33.3281L61.3281 28.0781C60.0938 27.5938 58.125 27.0469 55.7031 27.0469C49.5 27.0469 45.1406 30.3594 45.1094 35.0781C45.0625 38.5625 48.2344 40.5 50.6094 41.6719C53.0312 42.8594 53.8594 43.6406 53.8594 44.6875C53.8281 46.3125 51.8906 47.0625 50.0938 47.0625C47.5938 47.0625 46.25 46.6719 44.2031 45.7656L43.375 45.375L42.5 50.8281C43.9688 51.5 46.6875 52.0938 49.5 52.125C56.0938 52.1406 60.3906 48.875 60.4375 43.8438ZM82.5 51.7812L77.4375 27.5H72.5781C71.0781 27.5 69.9375 27.9375 69.2969 29.5156L59.9688 51.7812H66.5625C66.5625 51.7812 67.6406 48.7812 67.875 48.1406H75.9375C76.125 49 76.6875 51.7812 76.6875 51.7812H82.5Z" fill="white"/>
</svg>
