<svg width="100" height="100" viewBox="0 0 100 100" fill="none" xmlns="http://www.w3.org/2000/svg">
<circle cx="50" cy="50" r="50" fill="#F8F6F6"/>
<path d="M34.2133 51.0141C34.3403 51.3415 34.5306 51.6405 34.7733 51.8941L48.1067 65.2275C48.3553 65.4761 48.6505 65.6733 48.9753 65.8079C49.3002 65.9425 49.6484 66.0117 50 66.0117C50.7101 66.0117 51.3912 65.7296 51.8933 65.2275C52.142 64.9788 52.3392 64.6837 52.4738 64.3588C52.6083 64.0339 52.6776 63.6858 52.6776 63.3341C52.6776 62.624 52.3955 61.943 51.8933 61.4408L43.0933 52.6675H63.3333C64.0406 52.6675 64.7189 52.3865 65.219 51.8864C65.719 51.3863 66 50.708 66 50.0008C66 49.2936 65.719 48.6153 65.219 48.1152C64.7189 47.6151 64.0406 47.3341 63.3333 47.3341H43.0933L51.8933 38.5608C52.1433 38.3129 52.3417 38.018 52.477 37.693C52.6124 37.3681 52.6821 37.0195 52.6821 36.6675C52.6821 36.3154 52.6124 35.9669 52.477 35.6419C52.3417 35.317 52.1433 35.022 51.8933 34.7741C51.6454 34.5242 51.3505 34.3258 51.0255 34.1904C50.7006 34.055 50.352 33.9853 50 33.9853C49.648 33.9853 49.2994 34.055 48.9745 34.1904C48.6495 34.3258 48.3546 34.5242 48.1067 34.7741L34.7733 48.1075C34.5306 48.3611 34.3403 48.6601 34.2133 48.9875C33.9466 49.6367 33.9466 50.3649 34.2133 51.0141Z" fill="#333333"/>
</svg>

