<svg width="80" height="80" viewBox="0 0 80 80" fill="none" xmlns="http://www.w3.org/2000/svg">
<path d="M56.6842 53.3424H63.3509V13.3424H30.0176V20.0091H56.6842V53.3424ZM56.6842 60.0091V70.0058C56.6842 71.8491 55.1842 73.3391 53.3276 73.3391H13.3742C12.9345 73.3422 12.4986 73.2582 12.0915 73.0921C11.6844 72.926 11.3141 72.6809 11.0021 72.3711C10.6901 72.0613 10.4425 71.6927 10.2735 71.2868C10.1046 70.8809 10.0176 70.4455 10.0176 70.0058L10.0242 23.3458C10.0242 21.5024 11.5242 20.0091 13.3809 20.0091H23.3476V10.0091C23.3476 9.12506 23.6988 8.27721 24.3239 7.65209C24.949 7.02697 25.7969 6.67578 26.6809 6.67578H66.6809C67.565 6.67578 68.4128 7.02697 69.0379 7.65209C69.6631 8.27721 70.0142 9.12506 70.0142 10.0091V56.6758C70.0142 57.5598 69.6631 58.4077 69.0379 59.0328C68.4128 59.6579 67.565 60.0091 66.6809 60.0091H56.6842ZM23.3509 53.3424V60.0091H30.0176V63.3424H36.6842V60.0091H38.3509C40.561 60.0091 42.6807 59.1311 44.2435 57.5683C45.8063 56.0055 46.6842 53.8859 46.6842 51.6758C46.6842 49.4656 45.8063 47.346 44.2435 45.7832C42.6807 44.2204 40.561 43.3424 38.3509 43.3424H28.3509C27.9089 43.3424 27.485 43.1669 27.1724 42.8543C26.8598 42.5417 26.6842 42.1178 26.6842 41.6758C26.6842 41.2338 26.8598 40.8098 27.1724 40.4973C27.485 40.1847 27.9089 40.0091 28.3509 40.0091H43.3509V33.3424H36.6842V30.0091H30.0176V33.3424H28.3509C26.1408 33.3424 24.0212 34.2204 22.4584 35.7832C20.8956 37.346 20.0176 39.4656 20.0176 41.6758C20.0176 43.8859 20.8956 46.0055 22.4584 47.5683C24.0212 49.1311 26.1408 50.0091 28.3509 50.0091H38.3509C38.7929 50.0091 39.2169 50.1847 39.5294 50.4973C39.842 50.8098 40.0176 51.2338 40.0176 51.6758C40.0176 52.1178 39.842 52.5417 39.5294 52.8543C39.2169 53.1669 38.7929 53.3424 38.3509 53.3424H23.3509Z" fill="white"/>
</svg>
