<svg width="80" height="80" viewBox="0 0 80 80" fill="none" xmlns="http://www.w3.org/2000/svg">
<g clip-path="url(#clip0_1709_2866)">
<path d="M46.666 16.666C47.5289 16.666 48.3581 17.0006 48.9793 17.5993L49.2693 17.916L61.5993 33.3327H63.3327C65.8834 33.3325 68.3377 34.3071 70.1935 36.057C72.0494 37.8068 73.1664 40.1997 73.316 42.746L73.3327 43.3327V56.666C73.3327 57.5501 72.9815 58.3979 72.3564 59.023C71.7313 59.6482 70.8834 59.9993 69.9993 59.9993H66.096C65.406 61.9488 64.1287 63.6365 62.4399 64.8302C60.7512 66.0238 58.734 66.6647 56.666 66.6647C54.598 66.6647 52.5808 66.0238 50.8921 64.8302C49.2034 63.6365 47.9261 61.9488 47.236 59.9993H32.7627C32.0726 61.9488 30.7953 63.6365 29.1066 64.8302C27.4179 66.0238 25.4007 66.6647 23.3327 66.6647C21.2647 66.6647 19.2475 66.0238 17.5588 64.8302C15.87 63.6365 14.5927 61.9488 13.9027 59.9993H9.99935C9.11529 59.9993 8.26745 59.6482 7.64233 59.023C7.0172 58.3979 6.66602 57.5501 6.66602 56.666V36.666L6.68935 36.276L6.71602 36.0893L6.77268 35.8293L6.81268 35.7093L6.85935 35.5427L13.5727 18.7627C13.8198 18.1441 14.2466 17.6138 14.7979 17.2401C15.3493 16.8664 15.9999 16.6664 16.666 16.666H46.666ZM23.3327 53.3327C22.4486 53.3327 21.6008 53.6839 20.9757 54.309C20.3505 54.9341 19.9993 55.782 19.9993 56.666C19.9993 57.5501 20.3505 58.3979 20.9757 59.023C21.6008 59.6482 22.4486 59.9993 23.3327 59.9993C24.2167 59.9993 25.0646 59.6482 25.6897 59.023C26.3148 58.3979 26.666 57.5501 26.666 56.666C26.666 55.782 26.3148 54.9341 25.6897 54.309C25.0646 53.6839 24.2167 53.3327 23.3327 53.3327ZM56.666 53.3327C55.782 53.3327 54.9341 53.6839 54.309 54.309C53.6839 54.9341 53.3327 55.782 53.3327 56.666C53.3327 57.5501 53.6839 58.3979 54.309 59.023C54.9341 59.6482 55.782 59.9993 56.666 59.9993C57.5501 59.9993 58.3979 59.6482 59.023 59.023C59.6482 58.3979 59.9993 57.5501 59.9993 56.666C59.9993 55.782 59.6482 54.9341 59.023 54.309C58.3979 53.6839 57.5501 53.3327 56.666 53.3327ZM36.666 23.3327H18.9193L14.9193 33.3327H36.666V23.3327ZM45.066 23.3327H43.3327V33.3327H53.066L45.066 23.3327Z" fill="white"/>
</g>
<defs>
<clipPath id="clip0_1709_2866">
<rect width="80" height="80" fill="white"/>
</clipPath>
</defs>
</svg>
